# xmcd
#
# Track frame offsets:
#	150
#	13413
#	32813
#	55700
#	71713
#	86200
#	101688
#	119538
#	136663
#	157650
#	175550
#	190825
#	202250
#	216275
#	231475
#	252438
#	267775
#	288750
#	308300
#	323063
#
# Disc length: 4483 seconds
#
# Revision: 0
# Processed by: cddbd v1.5.2PL0 Copyright (c) Steve Scherf et al.
# Submitted via: EasyCDDAExtractor 16.1.0.1
#
DISCID=1c118114
DTITLE=Garden - The Ultimate Secret Garden
DYEAR=1900
DGENRE=
TTITLE0=Swan
TTITLE1=My Irish Friend
TTITLE2=You Raise Me Up
TTITLE3=Song From A Secret Garden
TTITLE4=Nocturne
TTITLE5=Chaconne
TTITLE6=Celebration
TTITLE7=Passacaglia
TTITLE8=Prayer
TTITLE9=Duo
TTITLE10=Moving
TTITLE11=The Rap
TTITLE12=Sigma
TTITLE13=The Promise
TTITLE14=In Our Tears
TTITLE15=Heartstrings
TTITLE16=Ink Painting
TTITLE17=Hymn To Hope
TTITLE18=Serenade To Spring
TTITLE19=Adagio
EXTD=
EXTT0=
EXTT1=
EXTT2=
EXTT3=
EXTT4=
EXTT5=
EXTT6=
EXTT7=
EXTT8=
EXTT9=
EXTT10=
EXTT11=
EXTT12=
EXTT13=
EXTT14=
EXTT15=
EXTT16=
EXTT17=
EXTT18=
EXTT19=
PLAYORDER=
